<?xml version="1.0" encoding="UTF-8"?>
<svg version="1.1" xmlns="http://www.w3.org/2000/svg" width="2000" height="2000">
<path d="M0 0 C1.01573856 -0.00177501 2.03147711 -0.00355002 3.07799562 -0.00537882 C6.47392901 -0.01010129 9.86981961 -0.00775006 13.26575494 -0.00541991 C15.73865419 -0.00737397 18.21155313 -0.00976324 20.68445158 -0.01254788 C26.07401401 -0.0176064 31.46356437 -0.0195668 36.85312817 -0.01879714 C44.92180919 -0.01765923 52.99048011 -0.02225069 61.05915885 -0.02792798 C74.81227887 -0.03742922 88.56539685 -0.04214514 102.31851983 -0.04423732 C116.25609767 -0.04636685 130.19367237 -0.05062931 144.13124871 -0.05748004 C145.01164377 -0.05791065 145.89203883 -0.05834127 146.79911252 -0.05878493 C150.38487954 -0.06054331 153.97064656 -0.06231296 157.55641357 -0.06409795 C201.01496673 -0.0856893 244.4735205 -0.09657577 287.9320778 -0.10557419 C302.02753143 -0.10850896 316.12298492 -0.11187896 330.21843839 -0.1155414 C331.21309894 -0.11579969 332.20775949 -0.11605798 333.23256127 -0.1163241 C337.25680586 -0.11737035 341.28105045 -0.11841878 345.30529504 -0.11946992 C414.14663122 -0.13743523 482.98796764 -0.15281285 551.82930583 -0.16022895 C557.23602201 -0.16081292 562.64273818 -0.16141018 568.04945435 -0.16200657 C569.65821285 -0.16218375 569.65821285 -0.16218375 571.29947152 -0.16236451 C582.16520426 -0.16356187 593.03093701 -0.16477064 603.89666975 -0.16599704 C606.0752572 -0.16624227 608.25384465 -0.16648613 610.43243209 -0.16672861 C680.37531288 -0.17451549 750.31817688 -0.19689228 820.26105033 -0.22940504 C870.5204736 -0.25276012 920.77989353 -0.27430698 971.03932214 -0.28141135 C972.59073318 -0.28163188 972.59073318 -0.28163188 974.17348586 -0.28185687 C996.88198568 -0.28504217 1019.59048548 -0.28709273 1042.29898551 -0.28808442 C1051.43680774 -0.28849913 1060.57462995 -0.28905403 1069.71245217 -0.28964633 C1070.71250096 -0.289707 1071.71254975 -0.28976766 1072.74290305 -0.28983017 C1104.91827402 -0.29184378 1137.09362514 -0.30606475 1169.26898919 -0.32659133 C1201.69415472 -0.34720383 1234.11929733 -0.35505003 1266.54446875 -0.34551357 C1271.03313506 -0.34419526 1275.5218014 -0.34301717 1280.01046777 -0.34192294 C1281.33022446 -0.34159317 1281.33022446 -0.34159317 1282.67664291 -0.34125673 C1296.56346056 -0.33815207 1310.45023414 -0.34843117 1324.33704159 -0.36439849 C1338.01883298 -0.37984887 1351.70056389 -0.38084136 1365.38235746 -0.36685025 C1372.69007912 -0.35976414 1379.99766263 -0.35881384 1387.3053703 -0.37641034 C1444.44440063 -0.50732929 1496.52672682 5.29702497 1548.38486886 31.12880117 C1549.1766755 31.51922597 1549.96848214 31.90965078 1550.78428292 32.31190664 C1561.82983599 37.8013417 1572.18968781 44.19846696 1582.38486886 51.12880117 C1583.32290353 51.76519521 1583.32290353 51.76519521 1584.27988839 52.4144457 C1593.12127782 58.45909319 1601.32125866 65.08810509 1609.38486886 72.12880117 C1610.12350167 72.7668871 1610.86213449 73.40497304 1611.62315011 74.06239492 C1613.55505572 75.73877794 1615.47081566 77.4320807 1617.38486886 79.12880117 C1618.19697824 79.83649648 1619.00908761 80.54419179 1619.84580636 81.27333242 C1624.38241929 85.27181859 1628.60556352 89.30593817 1632.49815011 93.93348867 C1634.75413313 96.5584627 1637.13374447 99.04959799 1639.50986886 101.56630117 C1684.41889768 149.98994963 1713.65946519 220.63583619 1713.51367003 286.74393231 C1713.51544504 287.75967086 1713.51722005 288.77540942 1713.51904884 289.82192793 C1713.52377131 293.21786132 1713.52142009 296.61375192 1713.51908994 300.00968724 C1713.52104399 302.48258649 1713.52343327 304.95548543 1713.52621791 307.42838389 C1713.53127643 312.81794632 1713.53323682 318.20749668 1713.53246716 323.59706047 C1713.53132926 331.6657415 1713.53592072 339.73441241 1713.541598 347.80309116 C1713.55109925 361.55621118 1713.55581516 375.30932916 1713.55790734 389.06245214 C1713.56003688 403.00002997 1713.56429934 416.93760468 1713.57115006 430.87518102 C1713.57158068 431.75557608 1713.57201129 432.63597113 1713.57245496 433.54304483 C1713.57421334 437.12881185 1713.57598299 440.71457887 1713.57776798 444.30034588 C1713.59935933 487.75889904 1713.61024579 531.21745281 1713.61924421 574.6760101 C1713.62217899 588.77146374 1713.62554899 602.86691723 1713.62921143 616.96237069 C1713.62946972 617.95703125 1713.62972801 618.9516918 1713.62999413 619.97649358 C1713.63104038 624.00073817 1713.63208881 628.02498276 1713.63313995 632.04922735 C1713.65110526 700.89056353 1713.66648288 769.73189995 1713.67389898 838.57323814 C1713.67448294 843.97995431 1713.67508021 849.38667048 1713.6756766 854.79338665 C1713.67579472 855.86589232 1713.67591284 856.93839799 1713.67603453 858.04340382 C1713.6772319 868.90913657 1713.67844067 879.77486932 1713.67966707 890.64060206 C1713.6799123 892.81918951 1713.68015616 894.99777695 1713.68039864 897.1763644 C1713.68818551 967.11924519 1713.71056231 1037.06210918 1713.74307506 1107.00498263 C1713.76643015 1157.26440591 1713.78797701 1207.52382584 1713.79508138 1257.78325444 C1713.7952284 1258.81752847 1713.79537542 1259.8518025 1713.79552689 1260.91741816 C1713.7987122 1283.62591799 1713.80076276 1306.33441779 1713.80175444 1329.04291781 C1713.80216916 1338.18074004 1713.80272406 1347.31856226 1713.80331635 1356.45638448 C1713.80340736 1357.95645766 1713.80340736 1357.95645766 1713.8035002 1359.48683535 C1713.80551381 1391.66220633 1713.81973478 1423.83755744 1713.84026136 1456.01292149 C1713.86087385 1488.43808702 1713.86872006 1520.86322963 1713.85918359 1553.28840106 C1713.85786528 1557.77706737 1713.8566872 1562.2657337 1713.85559297 1566.75440007 C1713.85537312 1567.63423787 1713.85515327 1568.51407567 1713.85492676 1569.42057522 C1713.8518221 1583.30739287 1713.8621012 1597.19416644 1713.87806852 1611.0809739 C1713.8935189 1624.76276528 1713.89451139 1638.4444962 1713.88052028 1652.12628977 C1713.87343417 1659.43401142 1713.87248387 1666.74159493 1713.89008037 1674.04930261 C1714.02099932 1731.18833293 1708.21664505 1783.27065913 1682.38486886 1835.12880117 C1681.99444406 1835.92060781 1681.60401925 1836.71241445 1681.20176339 1837.52821523 C1675.71232833 1848.5737683 1669.31520306 1858.93362012 1662.38486886 1869.12880117 C1661.96060616 1869.75415761 1661.53634347 1870.37951406 1661.09922433 1871.0238207 C1655.05457684 1879.86521013 1648.42556494 1888.06519097 1641.38486886 1896.12880117 C1640.74678292 1896.86743398 1640.10869699 1897.60606679 1639.45127511 1898.36708242 C1637.77489209 1900.29898803 1636.08158932 1902.21474797 1634.38486886 1904.12880117 C1633.67717355 1904.94091054 1632.96947824 1905.75301992 1632.24033761 1906.58973867 C1628.24185144 1911.1263516 1624.20773186 1915.34949582 1619.58018136 1919.24208242 C1616.95520733 1921.49806544 1614.46407204 1923.87767677 1611.94736886 1926.25380117 C1563.5237204 1971.16282998 1492.87783384 2000.40339749 1426.76973772 2000.25760233 C1425.75399917 2000.25937734 1424.73826061 2000.26115235 1423.6917421 2000.26298115 C1420.29580871 2000.26770362 1416.89991811 2000.26535239 1413.50398278 2000.26302224 C1411.03108353 2000.2649763 1408.55818459 2000.26736557 1406.08528614 2000.27015021 C1400.69572371 2000.27520873 1395.30617335 2000.27716913 1389.91660956 2000.27639947 C1381.84792853 2000.27526156 1373.77925761 2000.27985303 1365.71057887 2000.28553031 C1351.95745885 2000.29503155 1338.20434087 2000.29974747 1324.45121789 2000.30183965 C1310.51364005 2000.30396918 1296.57606535 2000.30823165 1282.63848901 2000.31508237 C1281.75809395 2000.31551299 1280.8776989 2000.3159436 1279.9706252 2000.31638726 C1276.38485818 2000.31814565 1272.79909116 2000.31991529 1269.21332415 2000.32170028 C1225.75477099 2000.34329164 1182.29621722 2000.3541781 1138.83765992 2000.36317652 C1124.74220629 2000.36611129 1110.6467528 2000.3694813 1096.55129933 2000.37314373 C1095.55663878 2000.37340202 1094.56197823 2000.37366031 1093.53717645 2000.37392643 C1089.51293186 2000.37497269 1085.48868727 2000.37602111 1081.46444268 2000.37707225 C1012.6231065 2000.39503757 943.78177008 2000.41041519 874.94043189 2000.41783129 C869.53371571 2000.41841525 864.12699954 2000.41901252 858.72028337 2000.4196089 C857.11152487 2000.41978608 857.11152487 2000.41978608 855.4702662 2000.41996684 C844.60453346 2000.42116421 833.73880071 2000.42237297 822.87306797 2000.42359937 C820.69448052 2000.42384461 818.51589307 2000.42408846 816.33730563 2000.42433094 C746.39442484 2000.43211782 676.45156085 2000.45449462 606.50868739 2000.48700737 C556.24926412 2000.51036245 505.98984419 2000.53190931 455.73041558 2000.53901368 C454.69614156 2000.5391607 453.66186753 2000.53930773 452.59625186 2000.5394592 C429.88775204 2000.54264451 407.17925224 2000.54469507 384.47075221 2000.54568675 C375.33292998 2000.54610147 366.19510777 2000.54665636 357.05728555 2000.54724866 C355.55721236 2000.54733966 355.55721236 2000.54733966 354.02683467 2000.54743251 C321.8514637 2000.54944612 289.67611258 2000.56366709 257.50074853 2000.58419366 C225.075583 2000.60480616 192.6504404 2000.61265237 160.22526897 2000.6031159 C155.73660266 2000.60179759 151.24793632 2000.6006195 146.75926995 2000.59952527 C145.87943216 2000.59930542 144.99959436 2000.59908558 144.09309481 2000.59885907 C130.20627716 2000.59575441 116.31950358 2000.60603351 102.43269613 2000.62200082 C88.75090474 2000.63745121 75.06917383 2000.6384437 61.38738026 2000.62445259 C54.0796586 2000.61736648 46.77207509 2000.61641618 39.46436742 2000.63401268 C-17.67466291 2000.76493163 -69.7569891 1994.96057736 -121.61513114 1969.12880117 C-122.40693778 1968.73837636 -123.19874442 1968.34795156 -124.0145452 1967.9456957 C-135.06009827 1962.45626063 -145.41995009 1956.05913537 -155.61513114 1949.12880117 C-156.24048759 1948.70453847 -156.86584403 1948.28027578 -157.51015067 1947.84315664 C-166.3515401 1941.79850915 -174.55152094 1935.16949725 -182.61513114 1928.12880117 C-183.35376395 1927.49071523 -184.09239676 1926.85262929 -184.85341239 1926.19520742 C-186.785318 1924.51882439 -188.70107794 1922.82552163 -190.61513114 1921.12880117 C-191.42724051 1920.42110585 -192.23934989 1919.71341054 -193.07606864 1918.98426992 C-197.61268157 1914.98578375 -201.83582579 1910.95166416 -205.72841239 1906.32411367 C-207.98439541 1903.69913963 -210.36400675 1901.20800435 -212.74013114 1898.69130117 C-257.64915996 1850.2676527 -286.88972747 1779.62176615 -286.74393231 1713.51367003 C-286.74570732 1712.49793147 -286.74748233 1711.48219292 -286.74931112 1710.43567441 C-286.75403359 1707.03974101 -286.75168237 1703.64385042 -286.74935222 1700.24791509 C-286.75130627 1697.77501584 -286.75369555 1695.3021169 -286.75648019 1692.82921845 C-286.76153871 1687.43965601 -286.7634991 1682.05010566 -286.76272944 1676.66054186 C-286.76159154 1668.59186084 -286.766183 1660.52318992 -286.77186028 1652.45451117 C-286.78136153 1638.70139116 -286.78607744 1624.94827317 -286.78816962 1611.1951502 C-286.79029916 1597.25757236 -286.79456162 1583.31999766 -286.80141234 1569.38242131 C-286.80205826 1568.06182873 -286.80205826 1568.06182873 -286.80271723 1566.71455751 C-286.80447562 1563.12879048 -286.80624527 1559.54302346 -286.80803026 1555.95725645 C-286.82962161 1512.4987033 -286.84050807 1469.04014953 -286.84950649 1425.58159223 C-286.85244127 1411.48613859 -286.85581127 1397.39068511 -286.85947371 1383.29523164 C-286.859732 1382.30057109 -286.85999029 1381.30591054 -286.86025641 1380.28110876 C-286.86130266 1376.25686416 -286.86235109 1372.23261957 -286.86340223 1368.20837498 C-286.88136754 1299.36703881 -286.89674516 1230.52570238 -286.90416126 1161.68436419 C-286.90474522 1156.27764802 -286.90534249 1150.87093185 -286.90593887 1145.46421568 C-286.90605699 1144.39171001 -286.90617511 1143.31920435 -286.90629681 1142.21419851 C-286.90749418 1131.34846576 -286.90870294 1120.48273302 -286.90992935 1109.61700027 C-286.91017458 1107.43841283 -286.91041844 1105.25982538 -286.91066091 1103.08123794 C-286.91844779 1033.13835715 -286.94082459 963.19549315 -286.97333734 893.2526197 C-286.99669243 842.99319643 -287.01823929 792.7337765 -287.02534366 742.47434789 C-287.02549068 741.44007386 -287.0256377 740.40579983 -287.02578917 739.34018417 C-287.02897448 716.63168434 -287.03102504 693.92318455 -287.03201672 671.21468452 C-287.03243144 662.07686229 -287.03298634 652.93904007 -287.03357863 643.80121785 C-287.0336393 642.80116907 -287.03369997 641.80112028 -287.03376248 640.77076698 C-287.03577609 608.595396 -287.04999706 576.42004489 -287.07052364 544.24468084 C-287.09113613 511.81951531 -287.09898234 479.3943727 -287.08944587 446.96920128 C-287.08812756 442.48053497 -287.08694948 437.99186863 -287.08585525 433.50320226 C-287.0856354 432.62336446 -287.08541555 431.74352667 -287.08518904 430.83702712 C-287.08208438 416.95020947 -287.09236348 403.06343589 -287.10833079 389.17662844 C-287.12378118 375.49483705 -287.12477367 361.81310614 -287.11078256 348.13131256 C-287.10369645 340.82359091 -287.10274615 333.5160074 -287.12034265 326.20829973 C-287.2512616 269.0692694 -281.44690733 216.98694321 -255.61513114 165.12880117 C-255.22470634 164.33699453 -254.83428153 163.54518789 -254.43202567 162.7293871 C-248.94259061 151.68383403 -242.54546534 141.32398222 -235.61513114 131.12880117 C-235.19086844 130.50344472 -234.76660575 129.87808828 -234.32948661 129.23378164 C-228.28483912 120.3923922 -221.65582722 112.19241136 -214.61513114 104.12880117 C-213.9770452 103.39016835 -213.33895926 102.65153554 -212.68153739 101.89051992 C-211.00515437 99.95861431 -209.3118516 98.04285436 -207.61513114 96.12880117 C-206.90743583 95.31669179 -206.19974051 94.50458242 -205.47059989 93.66786367 C-201.47211372 89.13125074 -197.43799414 84.90810651 -192.81044364 81.01551992 C-190.18546961 78.7595369 -187.69433432 76.37992556 -185.17763114 74.00380117 C-136.75398268 29.09477235 -66.10809612 -0.14579516 0 0 Z " fill="#2337FF" transform="translate(286.61513113975525,-0.128801167011261)"/>
<path d="M0 0 C1.20952332 0.00221558 2.41904663 0.00443115 3.66522217 0.00671387 C92.05872584 0.19710033 178.1667313 16.03748818 339.75 113.125 C340.30816406 113.59292969 340.86632813 114.06085938 341.44140625 114.54296875 C347.79755613 119.8832329 354.06218874 125.21847161 359.82666016 131.20458984 C361.65415488 133.02930087 363.54185007 134.69877563 365.51171875 136.3671875 C369.679162 139.98802575 373.44946293 143.88026638 377.1875 147.9375 C377.84073242 148.64181152 378.49396484 149.34612305 379.16699219 150.07177734 C380.45635357 151.46437713 381.74370731 152.85883909 383.02880859 154.25537109 C384.45738339 155.8071478 385.89372047 157.3517743 387.33203125 158.89453125 C393.00586389 165.05907375 398.16308507 171.57870549 403.27001953 178.21240234 C404.7597521 180.13760276 406.2669948 182.0479772 407.77734375 183.95703125 C444.18479068 230.31084255 472.44537251 284.45877301 488.75 341.125 C489.09659668 342.32600342 489.09659668 342.32600342 489.45019531 343.55126953 C496.94772006 369.9669672 502.88838256 397.2514024 505.49414062 424.59716797 C505.72702445 426.89800684 506.01029254 429.18223609 506.328125 431.47265625 C512.66829453 477.40574856 515.96344859 541.27120566 504.75 586.125 C257.91 586.455 11.07 586.785 -243.25 587.125 C-242.54441607 597.708759 -241.60670533 607.49031244 -239.6875 617.8125 C-239.55717377 618.51988312 -239.42684753 619.22726624 -239.29257202 619.95608521 C-227.39451287 683.87057871 -194.85741973 740.78435801 -140.81201172 777.92358398 C-93.0972627 810.09592778 -37.93973391 820.36547558 18.75 819.125 C19.71679688 819.10953125 20.68359375 819.0940625 21.6796875 819.078125 C39.24287818 818.75782365 56.78350717 815.5887531 73.75 811.125 C75.01070312 810.80144531 76.27140625 810.47789062 77.5703125 810.14453125 C107.78244576 802.04014892 134.72886216 786.39296279 157.14550781 764.67822266 C158.29269142 763.56769586 159.44644797 762.46394288 160.60449219 761.36474609 C174.81522793 747.85088971 186.23606969 733.31285703 196.21484375 716.44140625 C196.60793555 715.79306395 197.00102734 715.14472165 197.40603101 714.47673261 C198.79612086 712.12771538 198.79612086 712.12771538 199.91900885 709.55825293 C203.30107728 702.69103538 203.30107728 702.69103538 207.09813571 701.20767856 C210.06456462 700.85966456 212.88763991 700.83951233 215.87362671 700.92245483 C216.9976466 700.91391059 218.1216665 700.90536634 219.27974761 700.89656317 C223.04928164 700.8800796 226.81437192 700.9350952 230.58349609 700.98974609 C233.28395621 700.99256671 235.98414354 700.99142447 238.68457031 700.98532104 C244.49953656 700.98008106 250.31337953 701.01141397 256.1280632 701.06769943 C264.53488171 701.14902342 272.9411579 701.17501882 281.34832712 701.18757935 C294.98854803 701.20945773 308.62817042 701.27598436 322.26806641 701.37060547 C335.51673389 701.46241694 348.76523872 701.53319034 362.01416016 701.57568359 C362.8310206 701.57831083 363.64788105 701.58093806 364.48949485 701.58364491 C368.58750554 701.59669543 372.68551738 701.60933247 376.78353 701.62176394 C410.77278737 701.72540642 444.76132028 701.90151512 478.75 702.125 C477.80464213 705.30822012 476.85574523 708.49037504 475.90625 711.67236328 C475.64102539 712.56558792 475.37580078 713.45881256 475.10253906 714.37910461 C472.91602591 721.69675547 470.47902667 728.86435636 467.75 736 C467.28779053 737.21051025 466.82558105 738.42102051 466.34936523 739.66821289 C450.08556102 781.69262854 427.12018194 820.42436942 399.75 856.125 C399.27530273 856.74681152 398.80060547 857.36862305 398.31152344 858.00927734 C392.89080832 865.09142104 387.31997796 871.90340295 381.234375 878.4296875 C379.34816814 880.476044 377.53599401 882.54504954 375.73046875 884.66015625 C371.0582627 890.01852568 366.0141016 895.0105365 360.98022461 900.02514648 C359.31573723 901.6842732 357.65666553 903.34868051 355.99804688 905.01367188 C350.42197978 910.5935942 344.78713982 916.04032778 338.75 921.125 C337.69355456 922.03723276 336.63754368 922.9499691 335.58203125 923.86328125 C328.15346216 930.19630457 320.58198799 936.29591241 312.75 942.125 C312.0890332 942.61726074 311.42806641 943.10952148 310.74707031 943.61669922 C250.65683183 988.15008843 181.6231777 1019.42763725 107.75 1032.125 C106.32445801 1032.37612549 106.32445801 1032.37612549 104.87011719 1032.63232422 C78.99034261 1037.16107215 53.02130739 1039.77092493 26.75 1040.125 C25.82455383 1040.1383136 24.89910767 1040.1516272 23.94561768 1040.16534424 C-16.45750771 1040.72392769 -55.58957269 1039.00378091 -95.49755859 1032.71289062 C-98.7106771 1032.20949509 -101.92598741 1031.73258738 -105.14453125 1031.265625 C-150.74614243 1024.34116694 -199.46182827 1009.87188505 -240.25 988.125 C-242.13844473 987.17541128 -244.03335811 986.23965718 -245.92919922 985.30493164 C-248.66115911 983.95489311 -251.3821699 982.58365497 -254.10205078 981.20947266 C-255.55220256 980.47730919 -257.00373803 979.74788079 -258.45654297 979.02099609 C-284.42936717 965.97561866 -308.69495323 949.41901779 -331.25 931.125 C-332.21164062 930.35671875 -333.17328125 929.5884375 -334.1640625 928.796875 C-339.77305739 924.27807911 -345.15861751 919.56711695 -350.44921875 914.6796875 C-352.58003494 912.73609784 -354.73397369 910.84969913 -356.921875 908.97265625 C-362.11428293 904.44252341 -366.952334 899.56848041 -371.8125 894.6875 C-372.71935547 893.78451172 -373.62621094 892.88152344 -374.56054688 891.95117188 C-379.66643313 886.83788041 -384.5725034 881.63189901 -389.25 876.125 C-390.12712989 875.11547314 -391.00470226 874.10633049 -391.8828125 873.09765625 C-418.78985306 841.67799289 -440.58510793 806.95954061 -459.25 770.125 C-459.88953613 768.87807373 -459.88953613 768.87807373 -460.54199219 767.60595703 C-469.17251632 750.68369619 -475.73713696 732.94132378 -482.25 715.125 C-482.64993164 714.03815918 -483.04986328 712.95131836 -483.46191406 711.83154297 C-494.1313966 682.50739401 -500.37631142 651.99320526 -504.94073486 621.19726562 C-505.23925804 619.19697769 -505.54694937 617.19806461 -505.85498047 615.19921875 C-506.04592285 613.95785156 -506.23686523 612.71648438 -506.43359375 611.4375 C-506.59786865 610.37273438 -506.76214355 609.30796875 -506.93139648 608.2109375 C-510.68095156 582.36021976 -511.63728349 556.46743794 -511.5625 530.375 C-511.56027285 528.99411019 -511.55809659 527.61322029 -511.55596924 526.23233032 C-511.3475125 428.28042305 -491.02734197 329.45080305 -394.25 177.125 C-393.80479004 176.59632324 -393.35958008 176.06764648 -392.90087891 175.52294922 C-382.58319002 163.27222021 -371.80322543 151.5990803 -360.5 140.25 C-359.70779053 139.45311768 -358.91558105 138.65623535 -358.09936523 137.83520508 C-353.8569365 133.60431554 -349.53414746 129.5342176 -344.9921875 125.62646484 C-342.82407346 123.75792485 -340.72743101 121.81688174 -338.625 119.875 C-333.00650395 114.81321469 -327.11113895 110.15948961 -321.11523438 105.55761719 C-319.88987525 104.61646439 -318.66712733 103.67190017 -317.44726562 102.72363281 C-300.62318593 89.65541523 -282.79853507 77.61578569 -264.25 67.125 C-263.47076172 66.68269043 -262.69152344 66.24038086 -261.88867188 65.78466797 C-200.28952381 31.02649117 -133.01427467 10.91383789 -62.87402344 3.51123047 C-59.79114953 3.18267304 -56.71171925 2.83613032 -53.6328125 2.47265625 C-52.83721924 2.37952148 -52.04162598 2.28638672 -51.22192383 2.19042969 C-50.50931396 2.10696289 -49.7967041 2.02349609 -49.0625 1.9375 C-46.45687899 1.63543993 -43.86152309 1.36042385 -41.25 1.125 C-40.29432129 1.03669922 -39.33864258 0.94839844 -38.35400391 0.85742188 C-25.58420422 -0.16141629 -12.80175192 -0.03095212 0 0 Z " fill="#C9C3FF" transform="translate(964.25,481.875)"/>
<path d="M0 0 C0.87455841 -0.00261841 1.74911682 -0.00523682 2.650177 -0.00793457 C25.61975418 -0.01524183 49.35416026 1.59209356 71.4375 8.3125 C72.39688477 8.59689941 73.35626953 8.88129883 74.34472656 9.17431641 C98.53022711 16.44900451 121.04378885 26.29651298 141.4375 41.3125 C142.05625 41.76447754 142.675 42.21645508 143.3125 42.68212891 C152.42255493 49.40423032 160.7099983 56.95345512 168.86035156 64.79833984 C170.1536309 66.03996808 171.46154572 67.26633523 172.7734375 68.48828125 C204.76405549 98.97729881 221.70481597 143.25379043 228.125 186.0625 C228.25680664 186.92633301 228.38861328 187.79016602 228.52441406 188.68017578 C228.70375488 189.94450439 228.70375488 189.94450439 228.88671875 191.234375 C228.99330811 191.97268555 229.09989746 192.71099609 229.2097168 193.47167969 C229.55187437 197.73893102 229.4375 202.03155317 229.4375 206.3125 C73.3475 206.3125 -82.7425 206.3125 -243.5625 206.3125 C-239.49082563 165.59575629 -220.09908591 123.10805305 -194.5625 91.3125 C-193.5775636 90.04991691 -192.59322771 88.78686522 -191.609375 87.5234375 C-173.85375871 64.95532242 -152.43010365 47.51038025 -127.5625 33.3125 C-126.428125 32.65636719 -125.29375 32.00023437 -124.125 31.32421875 C-94.86204187 14.82177514 -61.76766632 5.40250396 -28.5625 1.3125 C-27.85279053 1.21751221 -27.14308105 1.12252441 -26.41186523 1.0246582 C-17.64657095 -0.02024251 -8.81537402 0.02527409 0 0 Z " fill="#2337FF" transform="translate(969.5625,695.6875)"/>
</svg>
